<svg viewBox="0 0 40 40" fill="none" xmlns="http://www.w3.org/2000/svg"><circle cx="20" cy="20" r="20" fill="#018FA3"/><g clip-path="url(#clip0_4_16)"><path d="M27.564 23.742L25.33 21.51c-.798-.797-2.154-.478-2.473.559-.239.717-1.036 1.116-1.754.957-1.595-.399-3.748-2.472-4.147-4.147-.239-.718.24-1.515.957-1.754 1.037-.32 1.356-1.675.559-2.472l-2.233-2.233c-.638-.559-1.595-.559-2.153 0l-1.515 1.515c-1.516 1.595.159 5.821 3.907 9.57 3.748 3.747 7.974 5.502 9.57 3.907l1.515-1.516c.558-.637.558-1.594 0-2.153z" fill="#fff"/></g><defs><clipPath id="clip0_4_16"><path fill="#fff" transform="translate(12 12)" d="M0 0h16v16H0z"/></clipPath></defs></svg>