<svg viewBox="0 0 40 40" fill="none" xmlns="http://www.w3.org/2000/svg">
<circle cx="20" cy="20" r="20" fill="#018FA3"/>
<g clip-path="url(#clip0_4_16)">
<path d="M27.5635 23.7424L25.3306 21.5095C24.5332 20.7121 23.1775 21.0311 22.8585 22.0678C22.6193 22.7855 21.8219 23.1842 21.1042 23.0247C19.5093 22.626 17.3562 20.5526 16.9574 18.878C16.7182 18.1602 17.1967 17.3628 17.9144 17.1236C18.9511 16.8046 19.27 15.449 18.4726 14.6515L16.2397 12.4187C15.6018 11.8604 14.6449 11.8604 14.0866 12.4187L12.5715 13.9338C11.0563 15.5287 12.731 19.7552 16.479 23.5032C20.227 27.2511 24.4534 29.0056 26.0483 27.4106L27.5635 25.8955C28.1217 25.2575 28.1217 24.3006 27.5635 23.7424Z" fill="white"/>
</g>
<defs>
<clipPath id="clip0_4_16">
<rect width="16" height="16" fill="white" transform="translate(12 12)"/>
</clipPath>
</defs>
</svg>
